# xmcd
#
# Track frame offsets:
#	150
#	15738
#	35914
#	52524
#	70162
#	79837
#	95437
#	104740
#	120895
#	136001
#	150675
#	166950
#	181608
#	191275
#
# Disc length: 2841 seconds
#
# Revision: 0
# Processed by: cddbd v1.5.1PL0 Copyright (c) Steve Scherf et al.
# Submitted via: audiograbber 1.83.01
#
DISCID=a40b170e
DTITLE=Various Artist - TSAMIKA - KALAMATIANA
DYEAR=1900
DGENRE=
TTITLE0=ROUSSA PAPADIA
TTITLE1=O HLIOS
TTITLE2=VASILIKOS THA GINW
TTITLE3=ROKATSANIKO
TTITLE4=MILO MOY KOKKINO
TTITLE5=NASAN TA NIATA DYO FORES
TTITLE6=STON ADH THA KATEVW
TTITLE7=H ARTA
TTITLE8=MWRI KONTOYLA LEMONIA
TTITLE9=O AMARANTOS
TTITLE10=KYR KWSTAKI ELA KONTA
TTITLE11=AGIOTHODWRITIKO
TTITLE12=TRIA PAIDIA VOLIOTIKA
TTITLE13=SARANTA PALIKARIA
EXTD=
EXTT0=
EXTT1=
EXTT2=
EXTT3=
EXTT4=
EXTT5=
EXTT6=
EXTT7=
EXTT8=
EXTT9=
EXTT10=
EXTT11=
EXTT12=
EXTT13=
PLAYORDER=
